# xmcd
#
# Track frame offsets:
#	150
#	13644
#	27699
#	43731
#	57585
#	75615
#	90915
#	107000
#	122994
#	138451
#	153155
#	169084
#	184630
#	202659
#
# Disc length: 2877 seconds
#
# Revision: 1
# Processed by: cddbd v1.5.1PL2 Copyright (c) Steve Scherf et al.
# Submitted via: dBpowerAMP V4.0
#
DISCID=b10b3b0e
DTITLE=Various Artist - Greatest Hits 2005
DYEAR=2005
DGENRE=Misc
TTITLE0=Blue Lagoon - Break My Stride
TTITLE1=Kelly Clarkson - Since U Been Gone
TTITLE2=Laleh - Life Tomorrow
TTITLE3=Darin - Money For Nothing
TTITLE4=Anastacia -  Welcome To My Truth
TTITLE5=Robyn - Be Mine
TTITLE6=Kent - Max 500
TTITLE7=Rihanna - Pon De Replay
TTITLE8=Arash featuring Rebecca - Temptation
TTITLE9=Amy Diamond - What's In It For Me
TTITLE10=Britney Spears - My Prerogative
TTITLE11=BWO - Open Door (Ballad Version)
TTITLE12=The Pussycat Dolls featuring Busta Rhymes - Don't Cha
TTITLE13=Helena Paparizou  - My Number One
EXTD=
EXTT0=
EXTT1=
EXTT2=
EXTT3=
EXTT4=
EXTT5=
EXTT6=
EXTT7=
EXTT8=
EXTT9=
EXTT10=
EXTT11=
EXTT12=
EXTT13=
PLAYORDER=
